<svg xmlns="http://www.w3.org/2000/svg" version="1.1" xmlns:xlink="http://www.w3.org/1999/xlink" xmlns:svgjs="http://svgjs.dev/svgjs" width="1440" height="560" preserveAspectRatio="none" viewBox="0 0 1440 560"><g mask="url(&quot;#SvgjsMask1068&quot;)" fill="none"><path d="M-45.79 346.39L-45.79 346.39" stroke="rgba(233, 236, 239, 0.5)" stroke-width="1.5"></path><path d="M-45.79 346.39L86.33 402.16" stroke="rgba(233, 236, 239, 0.5)" stroke-width="1.5"></path><path d="M-45.79 346.39L-98.19 488.66" stroke="rgba(233, 236, 239, 0.5)" stroke-width="1.5"></path><path d="M-45.79 346.39L52.68 539.78" stroke="rgba(233, 236, 239, 0.5)" stroke-width="1.5"></path><path d="M-45.79 346.39L213.06 343.7" stroke="rgba(233, 236, 239, 0.5)" stroke-width="1.5"></path><path d="M-98.19 488.66L-98.19 488.66" stroke="rgba(233, 236, 239, 0.5)" stroke-width="1.5"></path><path d="M-98.19 488.66L52.68 539.78" stroke="rgba(233, 236, 239, 0.5)" stroke-width="1.5"></path><path d="M-98.19 488.66L86.33 402.16" stroke="rgba(233, 236, 239, 0.5)" stroke-width="1.5"></path><path d="M-98.19 488.66L-92.81 698.7" stroke="rgba(233, 236, 239, 0.5)" stroke-width="1.5"></path><path d="M-92.81 698.7L-92.81 698.7" stroke="rgba(233, 236, 239, 0.5)" stroke-width="1.5"></path><path d="M-92.81 698.7L86.7 649.96" stroke="rgba(233, 236, 239, 0.5)" stroke-width="1.5"></path><path d="M-92.81 698.7L52.68 539.78" stroke="rgba(233, 236, 239, 0.5)" stroke-width="1.5"></path><path d="M-92.81 698.7L86.33 402.16" stroke="rgba(233, 236, 239, 0.5)" stroke-width="1.5"></path><path d="M-92.81 698.7L256.62 709.31" stroke="rgba(233, 236, 239, 0.5)" stroke-width="1.5"></path><path d="M-92.81 698.7L-45.79 346.39" stroke="rgba(233, 236, 239, 0.5)" stroke-width="1.5"></path><path d="M86.33 402.16L86.33 402.16" stroke="rgba(233, 236, 239, 0.5)" stroke-width="1.5"></path><path d="M86.33 402.16L213.06 343.7" stroke="rgba(233, 236, 239, 0.5)" stroke-width="1.5"></path><path d="M86.33 402.16L52.68 539.78" stroke="rgba(233, 236, 239, 0.5)" stroke-width="1.5"></path><path d="M86.33 402.16L244.48 542.98" stroke="rgba(233, 236, 239, 0.5)" stroke-width="1.5"></path><path d="M86.33 402.16L86.7 649.96" stroke="rgba(233, 236, 239, 0.5)" stroke-width="1.5"></path><path d="M52.68 539.78L52.68 539.78" stroke="rgba(233, 236, 239, 0.5)" stroke-width="1.5"></path><path d="M52.68 539.78L86.7 649.96" stroke="rgba(233, 236, 239, 0.5)" stroke-width="1.5"></path><path d="M86.7 649.96L86.7 649.96" stroke="rgba(233, 236, 239, 0.5)" stroke-width="1.5"></path><path d="M86.7 649.96L256.62 709.31" stroke="rgba(233, 236, 239, 0.5)" stroke-width="1.5"></path><path d="M213.06 343.7L213.06 343.7" stroke="rgba(233, 236, 239, 0.5)" stroke-width="1.5"></path><path d="M213.06 343.7L339.06 399.78" stroke="rgba(233, 236, 239, 0.5)" stroke-width="1.5"></path><path d="M213.06 343.7L244.48 542.98" stroke="rgba(233, 236, 239, 0.5)" stroke-width="1.5"></path><path d="M244.48 542.98L244.48 542.98" stroke="rgba(233, 236, 239, 0.5)" stroke-width="1.5"></path><path d="M244.48 542.98L353.86 488.72" stroke="rgba(233, 236, 239, 0.5)" stroke-width="1.5"></path><path d="M244.48 542.98L352.5 653.52" stroke="rgba(233, 236, 239, 0.5)" stroke-width="1.5"></path><path d="M244.48 542.98L256.62 709.31" stroke="rgba(233, 236, 239, 0.5)" stroke-width="1.5"></path><path d="M244.48 542.98L339.06 399.78" stroke="rgba(233, 236, 239, 0.5)" stroke-width="1.5"></path><path d="M244.48 542.98L86.7 649.96" stroke="rgba(233, 236, 239, 0.5)" stroke-width="1.5"></path><path d="M256.62 709.31L256.62 709.31" stroke="rgba(233, 236, 239, 0.5)" stroke-width="1.5"></path><path d="M256.62 709.31L352.5 653.52" stroke="rgba(233, 236, 239, 0.5)" stroke-width="1.5"></path><path d="M339.06 399.78L339.06 399.78" stroke="rgba(233, 236, 239, 0.5)" stroke-width="1.5"></path><path d="M339.06 399.78L353.86 488.72" stroke="rgba(233, 236, 239, 0.5)" stroke-width="1.5"></path><path d="M339.06 399.78L551.57 354.76" stroke="rgba(233, 236, 239, 0.5)" stroke-width="1.5"></path><path d="M339.06 399.78L86.33 402.16" stroke="rgba(233, 236, 239, 0.5)" stroke-width="1.5"></path><path d="M339.06 399.78L352.5 653.52" stroke="rgba(233, 236, 239, 0.5)" stroke-width="1.5"></path><path d="M353.86 488.72L353.86 488.72" stroke="rgba(233, 236, 239, 0.5)" stroke-width="1.5"></path><path d="M353.86 488.72L352.5 653.52" stroke="rgba(233, 236, 239, 0.5)" stroke-width="1.5"></path><path d="M352.5 653.52L352.5 653.52" stroke="rgba(233, 236, 239, 0.5)" stroke-width="1.5"></path><path d="M352.5 653.52L506.31 658.89" stroke="rgba(233, 236, 239, 0.5)" stroke-width="1.5"></path><path d="M352.5 653.52L86.7 649.96" stroke="rgba(233, 236, 239, 0.5)" stroke-width="1.5"></path><path d="M551.57 354.76L551.57 354.76" stroke="rgba(233, 236, 239, 0.5)" stroke-width="1.5"></path><path d="M551.57 354.76L699.19 350.61" stroke="rgba(233, 236, 239, 0.5)" stroke-width="1.5"></path><path d="M551.57 354.76L674.87 516.88" stroke="rgba(233, 236, 239, 0.5)" stroke-width="1.5"></path><path d="M551.57 354.76L696.35 211.16" stroke="rgba(233, 236, 239, 0.5)" stroke-width="1.5"></path><path d="M506.31 658.89L506.31 658.89" stroke="rgba(233, 236, 239, 0.5)" stroke-width="1.5"></path><path d="M506.31 658.89L653.3 654.36" stroke="rgba(233, 236, 239, 0.5)" stroke-width="1.5"></path><path d="M506.31 658.89L674.87 516.88" stroke="rgba(233, 236, 239, 0.5)" stroke-width="1.5"></path><path d="M506.31 658.89L353.86 488.72" stroke="rgba(233, 236, 239, 0.5)" stroke-width="1.5"></path><path d="M506.31 658.89L256.62 709.31" stroke="rgba(233, 236, 239, 0.5)" stroke-width="1.5"></path><path d="M696.35 211.16L696.35 211.16" stroke="rgba(233, 236, 239, 0.5)" stroke-width="1.5"></path><path d="M696.35 211.16L699.19 350.61" stroke="rgba(233, 236, 239, 0.5)" stroke-width="1.5"></path><path d="M696.35 211.16L858.21 210.78" stroke="rgba(233, 236, 239, 0.5)" stroke-width="1.5"></path><path d="M696.35 211.16L848.3 347.32" stroke="rgba(233, 236, 239, 0.5)" stroke-width="1.5"></path><path d="M696.35 211.16L949.58 252.69" stroke="rgba(233, 236, 239, 0.5)" stroke-width="1.5"></path><path d="M696.35 211.16L948.61 338.13" stroke="rgba(233, 236, 239, 0.5)" stroke-width="1.5"></path><path d="M699.19 350.61L699.19 350.61" stroke="rgba(233, 236, 239, 0.5)" stroke-width="1.5"></path><path d="M674.87 516.88L674.87 516.88" stroke="rgba(233, 236, 239, 0.5)" stroke-width="1.5"></path><path d="M674.87 516.88L653.3 654.36" stroke="rgba(233, 236, 239, 0.5)" stroke-width="1.5"></path><path d="M674.87 516.88L699.19 350.61" stroke="rgba(233, 236, 239, 0.5)" stroke-width="1.5"></path><path d="M653.3 654.36L653.3 654.36" stroke="rgba(233, 236, 239, 0.5)" stroke-width="1.5"></path><path d="M653.3 654.36L847.5 695.52" stroke="rgba(233, 236, 239, 0.5)" stroke-width="1.5"></path><path d="M858.21 210.78L858.21 210.78" stroke="rgba(233, 236, 239, 0.5)" stroke-width="1.5"></path><path d="M858.21 210.78L949.58 252.69" stroke="rgba(233, 236, 239, 0.5)" stroke-width="1.5"></path><path d="M858.21 210.78L848.3 347.32" stroke="rgba(233, 236, 239, 0.5)" stroke-width="1.5"></path><path d="M858.21 210.78L948.61 338.13" stroke="rgba(233, 236, 239, 0.5)" stroke-width="1.5"></path><path d="M848.3 347.32L848.3 347.32" stroke="rgba(233, 236, 239, 0.5)" stroke-width="1.5"></path><path d="M848.3 347.32L948.61 338.13" stroke="rgba(233, 236, 239, 0.5)" stroke-width="1.5"></path><path d="M862.39 520.01L862.39 520.01" stroke="rgba(233, 236, 239, 0.5)" stroke-width="1.5"></path><path d="M862.39 520.01L987.24 556.26" stroke="rgba(233, 236, 239, 0.5)" stroke-width="1.5"></path><path d="M862.39 520.01L848.3 347.32" stroke="rgba(233, 236, 239, 0.5)" stroke-width="1.5"></path><path d="M862.39 520.01L966.2 658.92" stroke="rgba(233, 236, 239, 0.5)" stroke-width="1.5"></path><path d="M862.39 520.01L847.5 695.52" stroke="rgba(233, 236, 239, 0.5)" stroke-width="1.5"></path><path d="M862.39 520.01L674.87 516.88" stroke="rgba(233, 236, 239, 0.5)" stroke-width="1.5"></path><path d="M847.5 695.52L847.5 695.52" stroke="rgba(233, 236, 239, 0.5)" stroke-width="1.5"></path><path d="M847.5 695.52L966.2 658.92" stroke="rgba(233, 236, 239, 0.5)" stroke-width="1.5"></path><path d="M847.5 695.52L987.24 556.26" stroke="rgba(233, 236, 239, 0.5)" stroke-width="1.5"></path><path d="M962.66 -73.86L962.66 -73.86" stroke="rgba(233, 236, 239, 0.5)" stroke-width="1.5"></path><path d="M962.66 -73.86L1097.06 -102.65" stroke="rgba(233, 236, 239, 0.5)" stroke-width="1.5"></path><path d="M962.66 -73.86L1237.78 -81.93" stroke="rgba(233, 236, 239, 0.5)" stroke-width="1.5"></path><path d="M962.66 -73.86L858.21 210.78" stroke="rgba(233, 236, 239, 0.5)" stroke-width="1.5"></path><path d="M949.58 252.69L949.58 252.69" stroke="rgba(233, 236, 239, 0.5)" stroke-width="1.5"></path><path d="M949.58 252.69L948.61 338.13" stroke="rgba(233, 236, 239, 0.5)" stroke-width="1.5"></path><path d="M949.58 252.69L848.3 347.32" stroke="rgba(233, 236, 239, 0.5)" stroke-width="1.5"></path><path d="M949.58 252.69L1137.83 231.23" stroke="rgba(233, 236, 239, 0.5)" stroke-width="1.5"></path><path d="M948.61 338.13L948.61 338.13" stroke="rgba(233, 236, 239, 0.5)" stroke-width="1.5"></path><path d="M987.24 556.26L987.24 556.26" stroke="rgba(233, 236, 239, 0.5)" stroke-width="1.5"></path><path d="M987.24 556.26L966.2 658.92" stroke="rgba(233, 236, 239, 0.5)" stroke-width="1.5"></path><path d="M987.24 556.26L1119.49 546.71" stroke="rgba(233, 236, 239, 0.5)" stroke-width="1.5"></path><path d="M966.2 658.92L966.2 658.92" stroke="rgba(233, 236, 239, 0.5)" stroke-width="1.5"></path><path d="M1097.06 -102.65L1097.06 -102.65" stroke="rgba(233, 236, 239, 0.5)" stroke-width="1.5"></path><path d="M1097.06 -102.65L1237.78 -81.93" stroke="rgba(233, 236, 239, 0.5)" stroke-width="1.5"></path><path d="M1137.83 231.23L1137.83 231.23" stroke="rgba(233, 236, 239, 0.5)" stroke-width="1.5"></path><path d="M1137.83 231.23L1245.66 251.45" stroke="rgba(233, 236, 239, 0.5)" stroke-width="1.5"></path><path d="M1137.83 231.23L1111.54 402.65" stroke="rgba(233, 236, 239, 0.5)" stroke-width="1.5"></path><path d="M1111.54 402.65L1111.54 402.65" stroke="rgba(233, 236, 239, 0.5)" stroke-width="1.5"></path><path d="M1111.54 402.65L1119.49 546.71" stroke="rgba(233, 236, 239, 0.5)" stroke-width="1.5"></path><path d="M1111.54 402.65L948.61 338.13" stroke="rgba(233, 236, 239, 0.5)" stroke-width="1.5"></path><path d="M1111.54 402.65L1297.73 406.98" stroke="rgba(233, 236, 239, 0.5)" stroke-width="1.5"></path><path d="M1111.54 402.65L987.24 556.26" stroke="rgba(233, 236, 239, 0.5)" stroke-width="1.5"></path><path d="M1111.54 402.65L1245.66 251.45" stroke="rgba(233, 236, 239, 0.5)" stroke-width="1.5"></path><path d="M1119.49 546.71L1119.49 546.71" stroke="rgba(233, 236, 239, 0.5)" stroke-width="1.5"></path><path d="M1119.49 546.71L1281.23 515.43" stroke="rgba(233, 236, 239, 0.5)" stroke-width="1.5"></path><path d="M1119.49 546.71L966.2 658.92" stroke="rgba(233, 236, 239, 0.5)" stroke-width="1.5"></path><path d="M1237.78 -81.93L1237.78 -81.93" stroke="rgba(233, 236, 239, 0.5)" stroke-width="1.5"></path><path d="M1237.78 -81.93L1397.38 -95.64" stroke="rgba(233, 236, 239, 0.5)" stroke-width="1.5"></path><path d="M1237.78 -81.93L1262.74 81.71" stroke="rgba(233, 236, 239, 0.5)" stroke-width="1.5"></path><path d="M1237.78 -81.93L1427.92 73.86" stroke="rgba(233, 236, 239, 0.5)" stroke-width="1.5"></path><path d="M1262.74 81.71L1262.74 81.71" stroke="rgba(233, 236, 239, 0.5)" stroke-width="1.5"></path><path d="M1262.74 81.71L1427.92 73.86" stroke="rgba(233, 236, 239, 0.5)" stroke-width="1.5"></path><path d="M1262.74 81.71L1245.66 251.45" stroke="rgba(233, 236, 239, 0.5)" stroke-width="1.5"></path><path d="M1245.66 251.45L1245.66 251.45" stroke="rgba(233, 236, 239, 0.5)" stroke-width="1.5"></path><path d="M1245.66 251.45L1297.73 406.98" stroke="rgba(233, 236, 239, 0.5)" stroke-width="1.5"></path><path d="M1245.66 251.45L1399.43 190.47" stroke="rgba(233, 236, 239, 0.5)" stroke-width="1.5"></path><path d="M1297.73 406.98L1297.73 406.98" stroke="rgba(233, 236, 239, 0.5)" stroke-width="1.5"></path><path d="M1297.73 406.98L1389.49 397.74" stroke="rgba(233, 236, 239, 0.5)" stroke-width="1.5"></path><path d="M1297.73 406.98L1281.23 515.43" stroke="rgba(233, 236, 239, 0.5)" stroke-width="1.5"></path><path d="M1281.23 515.43L1281.23 515.43" stroke="rgba(233, 236, 239, 0.5)" stroke-width="1.5"></path><path d="M1281.23 515.43L1419.07 489.6" stroke="rgba(233, 236, 239, 0.5)" stroke-width="1.5"></path><path d="M1281.23 515.43L1389.49 397.74" stroke="rgba(233, 236, 239, 0.5)" stroke-width="1.5"></path><path d="M1281.98 702.03L1281.98 702.03" stroke="rgba(233, 236, 239, 0.5)" stroke-width="1.5"></path><path d="M1281.98 702.03L1425.4 649.77" stroke="rgba(233, 236, 239, 0.5)" stroke-width="1.5"></path><path d="M1281.98 702.03L1281.23 515.43" stroke="rgba(233, 236, 239, 0.5)" stroke-width="1.5"></path><path d="M1281.98 702.03L1119.49 546.71" stroke="rgba(233, 236, 239, 0.5)" stroke-width="1.5"></path><path d="M1397.38 -95.64L1397.38 -95.64" stroke="rgba(233, 236, 239, 0.5)" stroke-width="1.5"></path><path d="M1397.38 -95.64L1427.92 73.86" stroke="rgba(233, 236, 239, 0.5)" stroke-width="1.5"></path><path d="M1427.92 73.86L1427.92 73.86" stroke="rgba(233, 236, 239, 0.5)" stroke-width="1.5"></path><path d="M1427.92 73.86L1399.43 190.47" stroke="rgba(233, 236, 239, 0.5)" stroke-width="1.5"></path><path d="M1427.92 73.86L1554 54.08" stroke="rgba(233, 236, 239, 0.5)" stroke-width="1.5"></path><path d="M1399.43 190.47L1399.43 190.47" stroke="rgba(233, 236, 239, 0.5)" stroke-width="1.5"></path><path d="M1399.43 190.47L1262.74 81.71" stroke="rgba(233, 236, 239, 0.5)" stroke-width="1.5"></path><path d="M1399.43 190.47L1554 54.08" stroke="rgba(233, 236, 239, 0.5)" stroke-width="1.5"></path><path d="M1399.43 190.47L1389.49 397.74" stroke="rgba(233, 236, 239, 0.5)" stroke-width="1.5"></path><path d="M1389.49 397.74L1389.49 397.74" stroke="rgba(233, 236, 239, 0.5)" stroke-width="1.5"></path><path d="M1389.49 397.74L1419.07 489.6" stroke="rgba(233, 236, 239, 0.5)" stroke-width="1.5"></path><path d="M1389.49 397.74L1584.93 353.35" stroke="rgba(233, 236, 239, 0.5)" stroke-width="1.5"></path><path d="M1389.49 397.74L1245.66 251.45" stroke="rgba(233, 236, 239, 0.5)" stroke-width="1.5"></path><path d="M1419.07 489.6L1419.07 489.6" stroke="rgba(233, 236, 239, 0.5)" stroke-width="1.5"></path><path d="M1419.07 489.6L1297.73 406.98" stroke="rgba(233, 236, 239, 0.5)" stroke-width="1.5"></path><path d="M1419.07 489.6L1556.93 544.3" stroke="rgba(233, 236, 239, 0.5)" stroke-width="1.5"></path><path d="M1419.07 489.6L1425.4 649.77" stroke="rgba(233, 236, 239, 0.5)" stroke-width="1.5"></path><path d="M1425.4 649.77L1425.4 649.77" stroke="rgba(233, 236, 239, 0.5)" stroke-width="1.5"></path><path d="M1581.83 -47.79L1581.83 -47.79" stroke="rgba(233, 236, 239, 0.5)" stroke-width="1.5"></path><path d="M1581.83 -47.79L1554 54.08" stroke="rgba(233, 236, 239, 0.5)" stroke-width="1.5"></path><path d="M1581.83 -47.79L1397.38 -95.64" stroke="rgba(233, 236, 239, 0.5)" stroke-width="1.5"></path><path d="M1581.83 -47.79L1427.92 73.86" stroke="rgba(233, 236, 239, 0.5)" stroke-width="1.5"></path><path d="M1581.83 -47.79L1399.43 190.47" stroke="rgba(233, 236, 239, 0.5)" stroke-width="1.5"></path><path d="M1581.83 -47.79L1262.74 81.71" stroke="rgba(233, 236, 239, 0.5)" stroke-width="1.5"></path><path d="M1554 54.08L1554 54.08" stroke="rgba(233, 236, 239, 0.5)" stroke-width="1.5"></path><path d="M1584.93 353.35L1584.93 353.35" stroke="rgba(233, 236, 239, 0.5)" stroke-width="1.5"></path><path d="M1584.93 353.35L1556.93 544.3" stroke="rgba(233, 236, 239, 0.5)" stroke-width="1.5"></path><path d="M1584.93 353.35L1419.07 489.6" stroke="rgba(233, 236, 239, 0.5)" stroke-width="1.5"></path><path d="M1584.93 353.35L1399.43 190.47" stroke="rgba(233, 236, 239, 0.5)" stroke-width="1.5"></path><path d="M1584.93 353.35L1297.73 406.98" stroke="rgba(233, 236, 239, 0.5)" stroke-width="1.5"></path><path d="M1556.93 544.3L1556.93 544.3" stroke="rgba(233, 236, 239, 0.5)" stroke-width="1.5"></path><path d="M1556.93 544.3L1605.91 685.34" stroke="rgba(233, 236, 239, 0.5)" stroke-width="1.5"></path><path d="M1605.91 685.34L1605.91 685.34" stroke="rgba(233, 236, 239, 0.5)" stroke-width="1.5"></path><path d="M1605.91 685.34L1425.4 649.77" stroke="rgba(233, 236, 239, 0.5)" stroke-width="1.5"></path><path d="M1605.91 685.34L1419.07 489.6" stroke="rgba(233, 236, 239, 0.5)" stroke-width="1.5"></path><circle r="5" cx="-45.79" cy="346.39" fill="rgba(233, 236, 239, 0.5)"></circle><circle r="5" cx="-98.19" cy="488.66" fill="rgba(233, 236, 239, 0.5)"></circle><circle r="5" cx="-92.81" cy="698.7" fill="rgba(233, 236, 239, 0.5)"></circle><circle r="5" cx="86.33" cy="402.16" fill="rgba(233, 236, 239, 0.5)"></circle><circle r="5" cx="52.68" cy="539.78" fill="rgba(233, 236, 239, 0.5)"></circle><circle r="5" cx="86.7" cy="649.96" fill="rgba(233, 236, 239, 0.5)"></circle><circle r="5" cx="213.06" cy="343.7" fill="rgba(233, 236, 239, 0.5)"></circle><circle r="5" cx="244.48" cy="542.98" fill="rgba(233, 236, 239, 0.5)"></circle><circle r="5" cx="256.62" cy="709.31" fill="rgba(233, 236, 239, 0.5)"></circle><circle r="5" cx="339.06" cy="399.78" fill="rgba(233, 236, 239, 0.5)"></circle><circle r="5" cx="353.86" cy="488.72" fill="rgba(233, 236, 239, 0.5)"></circle><circle r="5" cx="352.5" cy="653.52" fill="rgba(233, 236, 239, 0.5)"></circle><circle r="5" cx="551.57" cy="354.76" fill="rgba(233, 236, 239, 0.5)"></circle><circle r="5" cx="506.31" cy="658.89" fill="rgba(233, 236, 239, 0.5)"></circle><circle r="5" cx="696.35" cy="211.16" fill="rgba(233, 236, 239, 0.5)"></circle><circle r="5" cx="699.19" cy="350.61" fill="rgba(233, 236, 239, 0.5)"></circle><circle r="5" cx="674.87" cy="516.88" fill="rgba(233, 236, 239, 0.5)"></circle><circle r="5" cx="653.3" cy="654.36" fill="rgba(233, 236, 239, 0.5)"></circle><circle r="5" cx="858.21" cy="210.78" fill="rgba(233, 236, 239, 0.5)"></circle><circle r="5" cx="848.3" cy="347.32" fill="rgba(233, 236, 239, 0.5)"></circle><circle r="5" cx="862.39" cy="520.01" fill="rgba(233, 236, 239, 0.5)"></circle><circle r="5" cx="847.5" cy="695.52" fill="rgba(233, 236, 239, 0.5)"></circle><circle r="5" cx="962.66" cy="-73.86" fill="rgba(233, 236, 239, 0.5)"></circle><circle r="5" cx="949.58" cy="252.69" fill="rgba(233, 236, 239, 0.5)"></circle><circle r="5" cx="948.61" cy="338.13" fill="rgba(233, 236, 239, 0.5)"></circle><circle r="5" cx="987.24" cy="556.26" fill="rgba(233, 236, 239, 0.5)"></circle><circle r="5" cx="966.2" cy="658.92" fill="rgba(233, 236, 239, 0.5)"></circle><circle r="5" cx="1097.06" cy="-102.65" fill="rgba(233, 236, 239, 0.5)"></circle><circle r="5" cx="1137.83" cy="231.23" fill="rgba(233, 236, 239, 0.5)"></circle><circle r="5" cx="1111.54" cy="402.65" fill="rgba(233, 236, 239, 0.5)"></circle><circle r="5" cx="1119.49" cy="546.71" fill="rgba(233, 236, 239, 0.5)"></circle><circle r="5" cx="1237.78" cy="-81.93" fill="rgba(233, 236, 239, 0.5)"></circle><circle r="5" cx="1262.74" cy="81.71" fill="rgba(233, 236, 239, 0.5)"></circle><circle r="5" cx="1245.66" cy="251.45" fill="rgba(233, 236, 239, 0.5)"></circle><circle r="5" cx="1297.73" cy="406.98" fill="rgba(233, 236, 239, 0.5)"></circle><circle r="5" cx="1281.23" cy="515.43" fill="rgba(233, 236, 239, 0.5)"></circle><circle r="5" cx="1281.98" cy="702.03" fill="rgba(233, 236, 239, 0.5)"></circle><circle r="5" cx="1397.38" cy="-95.64" fill="rgba(233, 236, 239, 0.5)"></circle><circle r="5" cx="1427.92" cy="73.86" fill="rgba(233, 236, 239, 0.5)"></circle><circle r="5" cx="1399.43" cy="190.47" fill="rgba(233, 236, 239, 0.5)"></circle><circle r="5" cx="1389.49" cy="397.74" fill="rgba(233, 236, 239, 0.5)"></circle><circle r="5" cx="1419.07" cy="489.6" fill="rgba(233, 236, 239, 0.5)"></circle><circle r="5" cx="1425.4" cy="649.77" fill="rgba(233, 236, 239, 0.5)"></circle><circle r="5" cx="1581.83" cy="-47.79" fill="rgba(233, 236, 239, 0.5)"></circle><circle r="5" cx="1554" cy="54.08" fill="rgba(233, 236, 239, 0.5)"></circle><circle r="5" cx="1584.93" cy="353.35" fill="rgba(233, 236, 239, 0.5)"></circle><circle r="5" cx="1556.93" cy="544.3" fill="rgba(233, 236, 239, 0.5)"></circle><circle r="5" cx="1605.91" cy="685.34" fill="rgba(233, 236, 239, 0.5)"></circle><path d="M109.86 510.48L109.86 510.48" stroke="hsla(210, 15.8%, 100%, 0.5)" stroke-width="1.5"></path><path d="M109.86 510.48L211.91 494.01" stroke="hsla(210, 15.8%, 100%, 0.5)" stroke-width="1.5"></path><path d="M109.86 510.48L-41.55 497.37" stroke="hsla(210, 15.8%, 100%, 0.5)" stroke-width="1.5"></path><path d="M109.86 510.48L99.37 697.7" stroke="hsla(210, 15.8%, 100%, 0.5)" stroke-width="1.5"></path><path d="M109.86 510.48L259.92 640.91" stroke="hsla(210, 15.8%, 100%, 0.5)" stroke-width="1.5"></path><path d="M109.86 510.48L-51.21 680.23" stroke="hsla(210, 15.8%, 100%, 0.5)" stroke-width="1.5"></path><path d="M370.22 555.65L370.22 555.65" stroke="hsla(210, 15.8%, 100%, 0.5)" stroke-width="1.5"></path><path d="M370.22 555.65L389.34 656.51" stroke="hsla(210, 15.8%, 100%, 0.5)" stroke-width="1.5"></path><path d="M370.22 555.65L259.92 640.91" stroke="hsla(210, 15.8%, 100%, 0.5)" stroke-width="1.5"></path><path d="M370.22 555.65L507.33 495.45" stroke="hsla(210, 15.8%, 100%, 0.5)" stroke-width="1.5"></path><path d="M370.22 555.65L211.91 494.01" stroke="hsla(210, 15.8%, 100%, 0.5)" stroke-width="1.5"></path><path d="M370.22 555.65L109.86 510.48" stroke="hsla(210, 15.8%, 100%, 0.5)" stroke-width="1.5"></path><path d="M853.9 357.38L853.9 357.38" stroke="hsla(210, 15.8%, 100%, 0.5)" stroke-width="1.5"></path><path d="M853.9 357.38L961.23 392.61" stroke="hsla(210, 15.8%, 100%, 0.5)" stroke-width="1.5"></path><path d="M853.9 357.38L859.83 553.75" stroke="hsla(210, 15.8%, 100%, 0.5)" stroke-width="1.5"></path><path d="M853.9 357.38L994.41 495.13" stroke="hsla(210, 15.8%, 100%, 0.5)" stroke-width="1.5"></path><path d="M853.9 357.38L1089.47 360.52" stroke="hsla(210, 15.8%, 100%, 0.5)" stroke-width="1.5"></path><path d="M853.9 357.38L656.5 493.29" stroke="hsla(210, 15.8%, 100%, 0.5)" stroke-width="1.5"></path><path d="M1138.8 189.08L1138.8 189.08" stroke="hsla(210, 15.8%, 100%, 0.5)" stroke-width="1.5"></path><path d="M1138.8 189.08L1130.8 108.07" stroke="hsla(210, 15.8%, 100%, 0.5)" stroke-width="1.5"></path><path d="M1138.8 189.08L1287.3 226.17" stroke="hsla(210, 15.8%, 100%, 0.5)" stroke-width="1.5"></path><path d="M1138.8 189.08L1261 62.59" stroke="hsla(210, 15.8%, 100%, 0.5)" stroke-width="1.5"></path><path d="M1089.47 360.52L1089.47 360.52" stroke="hsla(210, 15.8%, 100%, 0.5)" stroke-width="1.5"></path><path d="M1089.47 360.52L961.23 392.61" stroke="hsla(210, 15.8%, 100%, 0.5)" stroke-width="1.5"></path><path d="M1089.47 360.52L1154.75 506.63" stroke="hsla(210, 15.8%, 100%, 0.5)" stroke-width="1.5"></path><path d="M1089.47 360.52L994.41 495.13" stroke="hsla(210, 15.8%, 100%, 0.5)" stroke-width="1.5"></path><path d="M1089.47 360.52L1138.8 189.08" stroke="hsla(210, 15.8%, 100%, 0.5)" stroke-width="1.5"></path><path d="M1089.47 360.52L1289.66 349.33" stroke="hsla(210, 15.8%, 100%, 0.5)" stroke-width="1.5"></path><path d="M1089.47 360.52L1238.67 516.55" stroke="hsla(210, 15.8%, 100%, 0.5)" stroke-width="1.5"></path><path d="M1307.96 -70.7L1307.96 -70.7" stroke="hsla(210, 15.8%, 100%, 0.5)" stroke-width="1.5"></path><path d="M1307.96 -70.7L1441.91 -72.62" stroke="hsla(210, 15.8%, 100%, 0.5)" stroke-width="1.5"></path><path d="M1307.96 -70.7L1261 62.59" stroke="hsla(210, 15.8%, 100%, 0.5)" stroke-width="1.5"></path><path d="M1307.96 -70.7L1401.3 37.79" stroke="hsla(210, 15.8%, 100%, 0.5)" stroke-width="1.5"></path><path d="M1261 62.59L1261 62.59" stroke="hsla(210, 15.8%, 100%, 0.5)" stroke-width="1.5"></path><path d="M1261 62.59L1130.8 108.07" stroke="hsla(210, 15.8%, 100%, 0.5)" stroke-width="1.5"></path><path d="M1289.66 349.33L1289.66 349.33" stroke="hsla(210, 15.8%, 100%, 0.5)" stroke-width="1.5"></path><path d="M1289.66 349.33L1287.3 226.17" stroke="hsla(210, 15.8%, 100%, 0.5)" stroke-width="1.5"></path><path d="M1289.66 349.33L1397.58 246.78" stroke="hsla(210, 15.8%, 100%, 0.5)" stroke-width="1.5"></path><path d="M1289.66 349.33L1445.19 362.53" stroke="hsla(210, 15.8%, 100%, 0.5)" stroke-width="1.5"></path><path d="M1401.3 37.79L1401.3 37.79" stroke="hsla(210, 15.8%, 100%, 0.5)" stroke-width="1.5"></path><path d="M1401.3 37.79L1441.91 -72.62" stroke="hsla(210, 15.8%, 100%, 0.5)" stroke-width="1.5"></path><path d="M1401.3 37.79L1261 62.59" stroke="hsla(210, 15.8%, 100%, 0.5)" stroke-width="1.5"></path><path d="M1569.98 -43.39L1569.98 -43.39" stroke="hsla(210, 15.8%, 100%, 0.5)" stroke-width="1.5"></path><path d="M1569.98 -43.39L1571.93 53.26" stroke="hsla(210, 15.8%, 100%, 0.5)" stroke-width="1.5"></path><path d="M1569.98 -43.39L1441.91 -72.62" stroke="hsla(210, 15.8%, 100%, 0.5)" stroke-width="1.5"></path><path d="M1569.98 -43.39L1401.3 37.79" stroke="hsla(210, 15.8%, 100%, 0.5)" stroke-width="1.5"></path><path d="M1569.98 -43.39L1570.55 210.46" stroke="hsla(210, 15.8%, 100%, 0.5)" stroke-width="1.5"></path><path d="M1569.98 -43.39L1307.96 -70.7" stroke="hsla(210, 15.8%, 100%, 0.5)" stroke-width="1.5"></path><path d="M1569.98 -43.39L1261 62.59" stroke="hsla(210, 15.8%, 100%, 0.5)" stroke-width="1.5"></path><path d="M1571.93 53.26L1571.93 53.26" stroke="hsla(210, 15.8%, 100%, 0.5)" stroke-width="1.5"></path><path d="M1571.93 53.26L1570.55 210.46" stroke="hsla(210, 15.8%, 100%, 0.5)" stroke-width="1.5"></path><path d="M1571.93 53.26L1401.3 37.79" stroke="hsla(210, 15.8%, 100%, 0.5)" stroke-width="1.5"></path><path d="M1571.93 53.26L1441.91 -72.62" stroke="hsla(210, 15.8%, 100%, 0.5)" stroke-width="1.5"></path><path d="M1576.35 702.42L1576.35 702.42" stroke="hsla(210, 15.8%, 100%, 0.5)" stroke-width="1.5"></path><path d="M1576.35 702.42L1578.77 547.58" stroke="hsla(210, 15.8%, 100%, 0.5)" stroke-width="1.5"></path><path d="M1576.35 702.42L1396.59 543" stroke="hsla(210, 15.8%, 100%, 0.5)" stroke-width="1.5"></path><path d="M1576.35 702.42L1548.58 384.9" stroke="hsla(210, 15.8%, 100%, 0.5)" stroke-width="1.5"></path><path d="M-41.55 497.37L-41.55 497.37" stroke="hsla(210, 15.8%, 100%, 0.5)" stroke-width="1.5"></path><path d="M-41.55 497.37L-51.21 680.23" stroke="hsla(210, 15.8%, 100%, 0.5)" stroke-width="1.5"></path><path d="M-41.55 497.37L99.37 697.7" stroke="hsla(210, 15.8%, 100%, 0.5)" stroke-width="1.5"></path><path d="M-41.55 497.37L211.91 494.01" stroke="hsla(210, 15.8%, 100%, 0.5)" stroke-width="1.5"></path><path d="M-41.55 497.37L259.92 640.91" stroke="hsla(210, 15.8%, 100%, 0.5)" stroke-width="1.5"></path><path d="M-41.55 497.37L370.22 555.65" stroke="hsla(210, 15.8%, 100%, 0.5)" stroke-width="1.5"></path><path d="M-51.21 680.23L-51.21 680.23" stroke="hsla(210, 15.8%, 100%, 0.5)" stroke-width="1.5"></path><path d="M-51.21 680.23L99.37 697.7" stroke="hsla(210, 15.8%, 100%, 0.5)" stroke-width="1.5"></path><path d="M99.37 697.7L99.37 697.7" stroke="hsla(210, 15.8%, 100%, 0.5)" stroke-width="1.5"></path><path d="M99.37 697.7L259.92 640.91" stroke="hsla(210, 15.8%, 100%, 0.5)" stroke-width="1.5"></path><path d="M99.37 697.7L211.91 494.01" stroke="hsla(210, 15.8%, 100%, 0.5)" stroke-width="1.5"></path><path d="M211.91 494.01L211.91 494.01" stroke="hsla(210, 15.8%, 100%, 0.5)" stroke-width="1.5"></path><path d="M211.91 494.01L259.92 640.91" stroke="hsla(210, 15.8%, 100%, 0.5)" stroke-width="1.5"></path><path d="M211.91 494.01L389.34 656.51" stroke="hsla(210, 15.8%, 100%, 0.5)" stroke-width="1.5"></path><path d="M259.92 640.91L259.92 640.91" stroke="hsla(210, 15.8%, 100%, 0.5)" stroke-width="1.5"></path><path d="M259.92 640.91L389.34 656.51" stroke="hsla(210, 15.8%, 100%, 0.5)" stroke-width="1.5"></path><path d="M389.34 656.51L389.34 656.51" stroke="hsla(210, 15.8%, 100%, 0.5)" stroke-width="1.5"></path><path d="M389.34 656.51L507.33 495.45" stroke="hsla(210, 15.8%, 100%, 0.5)" stroke-width="1.5"></path><path d="M507.33 495.45L507.33 495.45" stroke="hsla(210, 15.8%, 100%, 0.5)" stroke-width="1.5"></path><path d="M507.33 495.45L656.5 493.29" stroke="hsla(210, 15.8%, 100%, 0.5)" stroke-width="1.5"></path><path d="M507.33 495.45L707.82 678.62" stroke="hsla(210, 15.8%, 100%, 0.5)" stroke-width="1.5"></path><path d="M656.5 493.29L656.5 493.29" stroke="hsla(210, 15.8%, 100%, 0.5)" stroke-width="1.5"></path><path d="M656.5 493.29L707.82 678.62" stroke="hsla(210, 15.8%, 100%, 0.5)" stroke-width="1.5"></path><path d="M656.5 493.29L859.83 553.75" stroke="hsla(210, 15.8%, 100%, 0.5)" stroke-width="1.5"></path><path d="M707.82 678.62L707.82 678.62" stroke="hsla(210, 15.8%, 100%, 0.5)" stroke-width="1.5"></path><path d="M707.82 678.62L859.83 644.1" stroke="hsla(210, 15.8%, 100%, 0.5)" stroke-width="1.5"></path><path d="M707.82 678.62L859.83 553.75" stroke="hsla(210, 15.8%, 100%, 0.5)" stroke-width="1.5"></path><path d="M707.82 678.62L1003.98 696.85" stroke="hsla(210, 15.8%, 100%, 0.5)" stroke-width="1.5"></path><path d="M707.82 678.62L389.34 656.51" stroke="hsla(210, 15.8%, 100%, 0.5)" stroke-width="1.5"></path><path d="M859.83 553.75L859.83 553.75" stroke="hsla(210, 15.8%, 100%, 0.5)" stroke-width="1.5"></path><path d="M859.83 553.75L859.83 644.1" stroke="hsla(210, 15.8%, 100%, 0.5)" stroke-width="1.5"></path><path d="M859.83 553.75L994.41 495.13" stroke="hsla(210, 15.8%, 100%, 0.5)" stroke-width="1.5"></path><path d="M859.83 553.75L961.23 392.61" stroke="hsla(210, 15.8%, 100%, 0.5)" stroke-width="1.5"></path><path d="M859.83 553.75L1003.98 696.85" stroke="hsla(210, 15.8%, 100%, 0.5)" stroke-width="1.5"></path><path d="M859.83 644.1L859.83 644.1" stroke="hsla(210, 15.8%, 100%, 0.5)" stroke-width="1.5"></path><path d="M859.83 644.1L1003.98 696.85" stroke="hsla(210, 15.8%, 100%, 0.5)" stroke-width="1.5"></path><path d="M859.83 644.1L994.41 495.13" stroke="hsla(210, 15.8%, 100%, 0.5)" stroke-width="1.5"></path><path d="M859.83 644.1L1101.9 685.25" stroke="hsla(210, 15.8%, 100%, 0.5)" stroke-width="1.5"></path><path d="M859.83 644.1L656.5 493.29" stroke="hsla(210, 15.8%, 100%, 0.5)" stroke-width="1.5"></path><path d="M961.23 392.61L961.23 392.61" stroke="hsla(210, 15.8%, 100%, 0.5)" stroke-width="1.5"></path><path d="M961.23 392.61L994.41 495.13" stroke="hsla(210, 15.8%, 100%, 0.5)" stroke-width="1.5"></path><path d="M994.41 495.13L994.41 495.13" stroke="hsla(210, 15.8%, 100%, 0.5)" stroke-width="1.5"></path><path d="M994.41 495.13L1154.75 506.63" stroke="hsla(210, 15.8%, 100%, 0.5)" stroke-width="1.5"></path><path d="M1003.98 696.85L1003.98 696.85" stroke="hsla(210, 15.8%, 100%, 0.5)" stroke-width="1.5"></path><path d="M1003.98 696.85L1101.9 685.25" stroke="hsla(210, 15.8%, 100%, 0.5)" stroke-width="1.5"></path><path d="M1003.98 696.85L994.41 495.13" stroke="hsla(210, 15.8%, 100%, 0.5)" stroke-width="1.5"></path><path d="M1152.21 -78.77L1152.21 -78.77" stroke="hsla(210, 15.8%, 100%, 0.5)" stroke-width="1.5"></path><path d="M1152.21 -78.77L1307.96 -70.7" stroke="hsla(210, 15.8%, 100%, 0.5)" stroke-width="1.5"></path><path d="M1130.8 108.07L1130.8 108.07" stroke="hsla(210, 15.8%, 100%, 0.5)" stroke-width="1.5"></path><path d="M1154.75 506.63L1154.75 506.63" stroke="hsla(210, 15.8%, 100%, 0.5)" stroke-width="1.5"></path><path d="M1154.75 506.63L1238.67 516.55" stroke="hsla(210, 15.8%, 100%, 0.5)" stroke-width="1.5"></path><path d="M1154.75 506.63L1237.6 669.76" stroke="hsla(210, 15.8%, 100%, 0.5)" stroke-width="1.5"></path><path d="M1101.9 685.25L1101.9 685.25" stroke="hsla(210, 15.8%, 100%, 0.5)" stroke-width="1.5"></path><path d="M1101.9 685.25L1237.6 669.76" stroke="hsla(210, 15.8%, 100%, 0.5)" stroke-width="1.5"></path><path d="M1287.3 226.17L1287.3 226.17" stroke="hsla(210, 15.8%, 100%, 0.5)" stroke-width="1.5"></path><path d="M1287.3 226.17L1397.58 246.78" stroke="hsla(210, 15.8%, 100%, 0.5)" stroke-width="1.5"></path><path d="M1287.3 226.17L1261 62.59" stroke="hsla(210, 15.8%, 100%, 0.5)" stroke-width="1.5"></path><path d="M1287.3 226.17L1130.8 108.07" stroke="hsla(210, 15.8%, 100%, 0.5)" stroke-width="1.5"></path><path d="M1287.3 226.17L1445.19 362.53" stroke="hsla(210, 15.8%, 100%, 0.5)" stroke-width="1.5"></path><path d="M1238.67 516.55L1238.67 516.55" stroke="hsla(210, 15.8%, 100%, 0.5)" stroke-width="1.5"></path><path d="M1238.67 516.55L1237.6 669.76" stroke="hsla(210, 15.8%, 100%, 0.5)" stroke-width="1.5"></path><path d="M1238.67 516.55L1396.59 543" stroke="hsla(210, 15.8%, 100%, 0.5)" stroke-width="1.5"></path><path d="M1238.67 516.55L1289.66 349.33" stroke="hsla(210, 15.8%, 100%, 0.5)" stroke-width="1.5"></path><path d="M1238.67 516.55L1101.9 685.25" stroke="hsla(210, 15.8%, 100%, 0.5)" stroke-width="1.5"></path><path d="M1237.6 669.76L1237.6 669.76" stroke="hsla(210, 15.8%, 100%, 0.5)" stroke-width="1.5"></path><path d="M1441.91 -72.62L1441.91 -72.62" stroke="hsla(210, 15.8%, 100%, 0.5)" stroke-width="1.5"></path><path d="M1441.91 -72.62L1261 62.59" stroke="hsla(210, 15.8%, 100%, 0.5)" stroke-width="1.5"></path><path d="M1397.58 246.78L1397.58 246.78" stroke="hsla(210, 15.8%, 100%, 0.5)" stroke-width="1.5"></path><path d="M1397.58 246.78L1445.19 362.53" stroke="hsla(210, 15.8%, 100%, 0.5)" stroke-width="1.5"></path><path d="M1397.58 246.78L1570.55 210.46" stroke="hsla(210, 15.8%, 100%, 0.5)" stroke-width="1.5"></path><path d="M1445.19 362.53L1445.19 362.53" stroke="hsla(210, 15.8%, 100%, 0.5)" stroke-width="1.5"></path><path d="M1445.19 362.53L1548.58 384.9" stroke="hsla(210, 15.8%, 100%, 0.5)" stroke-width="1.5"></path><path d="M1396.59 543L1396.59 543" stroke="hsla(210, 15.8%, 100%, 0.5)" stroke-width="1.5"></path><path d="M1396.59 543L1578.77 547.58" stroke="hsla(210, 15.8%, 100%, 0.5)" stroke-width="1.5"></path><path d="M1396.59 543L1445.19 362.53" stroke="hsla(210, 15.8%, 100%, 0.5)" stroke-width="1.5"></path><path d="M1396.59 543L1237.6 669.76" stroke="hsla(210, 15.8%, 100%, 0.5)" stroke-width="1.5"></path><path d="M1396.59 543L1548.58 384.9" stroke="hsla(210, 15.8%, 100%, 0.5)" stroke-width="1.5"></path><path d="M1570.55 210.46L1570.55 210.46" stroke="hsla(210, 15.8%, 100%, 0.5)" stroke-width="1.5"></path><path d="M1570.55 210.46L1548.58 384.9" stroke="hsla(210, 15.8%, 100%, 0.5)" stroke-width="1.5"></path><path d="M1570.55 210.46L1445.19 362.53" stroke="hsla(210, 15.8%, 100%, 0.5)" stroke-width="1.5"></path><path d="M1570.55 210.46L1401.3 37.79" stroke="hsla(210, 15.8%, 100%, 0.5)" stroke-width="1.5"></path><path d="M1548.58 384.9L1548.58 384.9" stroke="hsla(210, 15.8%, 100%, 0.5)" stroke-width="1.5"></path><path d="M1548.58 384.9L1578.77 547.58" stroke="hsla(210, 15.8%, 100%, 0.5)" stroke-width="1.5"></path><path d="M1578.77 547.58L1578.77 547.58" stroke="hsla(210, 15.8%, 100%, 0.5)" stroke-width="1.5"></path><path d="M1578.77 547.58L1445.19 362.53" stroke="hsla(210, 15.8%, 100%, 0.5)" stroke-width="1.5"></path><path d="M1578.77 547.58L1570.55 210.46" stroke="hsla(210, 15.8%, 100%, 0.5)" stroke-width="1.5"></path><circle r="25" cx="109.86" cy="510.48" fill="url(&quot;#SvgjsRadialGradient1069&quot;)"></circle><circle r="25" cx="370.22" cy="555.65" fill="url(&quot;#SvgjsRadialGradient1069&quot;)"></circle><circle r="25" cx="853.9" cy="357.38" fill="url(&quot;#SvgjsRadialGradient1069&quot;)"></circle><circle r="25" cx="1138.8" cy="189.08" fill="url(&quot;#SvgjsRadialGradient1069&quot;)"></circle><circle r="25" cx="1089.47" cy="360.52" fill="url(&quot;#SvgjsRadialGradient1069&quot;)"></circle><circle r="25" cx="1307.96" cy="-70.7" fill="url(&quot;#SvgjsRadialGradient1069&quot;)"></circle><circle r="25" cx="1261" cy="62.59" fill="url(&quot;#SvgjsRadialGradient1069&quot;)"></circle><circle r="25" cx="1289.66" cy="349.33" fill="url(&quot;#SvgjsRadialGradient1069&quot;)"></circle><circle r="25" cx="1401.3" cy="37.79" fill="url(&quot;#SvgjsRadialGradient1069&quot;)"></circle><circle r="25" cx="1569.98" cy="-43.39" fill="url(&quot;#SvgjsRadialGradient1069&quot;)"></circle><circle r="25" cx="1571.93" cy="53.26" fill="url(&quot;#SvgjsRadialGradient1069&quot;)"></circle><circle r="25" cx="1576.35" cy="702.42" fill="url(&quot;#SvgjsRadialGradient1069&quot;)"></circle><circle r="5" cx="-41.55" cy="497.37" fill="rgba(250, 250, 251, 0.75)"></circle><circle r="5" cx="-51.21" cy="680.23" fill="rgba(250, 250, 251, 0.75)"></circle><circle r="5" cx="99.37" cy="697.7" fill="rgba(250, 250, 251, 0.75)"></circle><circle r="5" cx="211.91" cy="494.01" fill="rgba(250, 250, 251, 0.75)"></circle><circle r="5" cx="259.92" cy="640.91" fill="rgba(250, 250, 251, 0.75)"></circle><circle r="5" cx="389.34" cy="656.51" fill="rgba(250, 250, 251, 0.75)"></circle><circle r="5" cx="507.33" cy="495.45" fill="rgba(250, 250, 251, 0.75)"></circle><circle r="5" cx="656.5" cy="493.29" fill="rgba(250, 250, 251, 0.75)"></circle><circle r="5" cx="707.82" cy="678.62" fill="rgba(250, 250, 251, 0.75)"></circle><circle r="5" cx="859.83" cy="553.75" fill="rgba(250, 250, 251, 0.75)"></circle><circle r="5" cx="859.83" cy="644.1" fill="rgba(250, 250, 251, 0.75)"></circle><circle r="5" cx="961.23" cy="392.61" fill="rgba(250, 250, 251, 0.75)"></circle><circle r="5" cx="994.41" cy="495.13" fill="rgba(250, 250, 251, 0.75)"></circle><circle r="5" cx="1003.98" cy="696.85" fill="rgba(250, 250, 251, 0.75)"></circle><circle r="5" cx="1152.21" cy="-78.77" fill="rgba(250, 250, 251, 0.75)"></circle><circle r="5" cx="1130.8" cy="108.07" fill="rgba(250, 250, 251, 0.75)"></circle><circle r="5" cx="1154.75" cy="506.63" fill="rgba(250, 250, 251, 0.75)"></circle><circle r="5" cx="1101.9" cy="685.25" fill="rgba(250, 250, 251, 0.75)"></circle><circle r="5" cx="1287.3" cy="226.17" fill="rgba(250, 250, 251, 0.75)"></circle><circle r="5" cx="1238.67" cy="516.55" fill="rgba(250, 250, 251, 0.75)"></circle><circle r="5" cx="1237.6" cy="669.76" fill="rgba(250, 250, 251, 0.75)"></circle><circle r="5" cx="1441.91" cy="-72.62" fill="rgba(250, 250, 251, 0.75)"></circle><circle r="5" cx="1397.58" cy="246.78" fill="rgba(250, 250, 251, 0.75)"></circle><circle r="5" cx="1445.19" cy="362.53" fill="rgba(250, 250, 251, 0.75)"></circle><circle r="5" cx="1396.59" cy="543" fill="rgba(250, 250, 251, 0.75)"></circle><circle r="5" cx="1570.55" cy="210.46" fill="rgba(250, 250, 251, 0.75)"></circle><circle r="5" cx="1548.58" cy="384.9" fill="rgba(250, 250, 251, 0.75)"></circle><circle r="5" cx="1578.77" cy="547.58" fill="rgba(250, 250, 251, 0.75)"></circle></g><defs><mask id="SvgjsMask1068"><rect width="1440" height="560" fill="#ffffff"></rect></mask><radialGradient id="SvgjsRadialGradient1069"><stop stop-color="#ffffff" offset="0.1"></stop><stop stop-color="rgba(233, 236, 239, 0.5)" offset="0.2"></stop><stop stop-color="rgba(233, 236, 239, 0)" offset="1"></stop></radialGradient></defs></svg>