<?xml version="1.0" standalone="no"?>
<!DOCTYPE svg PUBLIC "-//W3C//DTD SVG 20010904//EN"
 "http://www.w3.org/TR/2001/REC-SVG-20010904/DTD/svg10.dtd">
<svg version="1.0" xmlns="http://www.w3.org/2000/svg"
 width="630.000000pt" height="320.000000pt" viewBox="0 0 630.000000 320.000000"
 preserveAspectRatio="xMidYMid meet">

<g transform="translate(0.000000,320.000000) scale(0.100000,-0.100000)"
fill="#000000" stroke="none">
<path d="M720 1600 l0 -660 660 0 660 0 2 656 c2 361 1 658 -1 660 -2 2 -301
4 -663 4 l-658 0 0 -660z m1241 548 c1 -18 2 -55 2 -83 l1 -50 -49 2 c-28 2
-162 13 -300 25 -185 17 -324 23 -533 23 l-282 0 0 58 0 57 580 0 580 0 1 -32z
m-429 -118 c134 -11 261 -22 283 -25 22 -2 63 -5 92 -6 48 -2 53 -5 58 -31 10
-43 -2 -65 -39 -72 -32 -6 -417 7 -581 20 -44 3 -117 19 -167 35 -101 34 -127
35 -265 10 -57 -10 -105 -15 -108 -13 -3 3 -5 25 -5 48 0 39 2 43 28 47 83 12
482 5 704 -13z m-347 -100 c101 -33 244 -45 584 -49 101 -1 187 -3 190 -5 3
-2 6 -19 6 -38 l0 -33 -105 -4 c-58 -2 -235 -2 -395 0 -159 2 -375 4 -478 3
l-188 0 3 60 3 60 90 17 c135 25 187 23 290 -11z m455 -148 c187 3 310 2 314
-3 2 -2 6 -37 8 -78 l5 -73 -71 6 c-39 3 -174 11 -301 16 -211 10 -304 17
-440 35 -31 4 -81 1 -130 -8 -44 -9 -113 -19 -152 -23 l-73 -7 0 66 c0 54 3
66 18 71 9 2 163 2 342 0 179 -3 395 -3 480 -2z m-425 -121 c70 -11 150 -17
455 -32 273 -13 295 -17 296 -48 l1 -23 -221 7 c-121 4 -384 6 -583 5 l-363
-3 0 30 0 30 98 12 c54 7 114 16 133 21 48 11 114 11 184 1z m564 -116 c90 -2
170 -6 178 -9 24 -9 8 -49 -23 -59 -29 -10 -438 -14 -886 -9 l-248 2 0 40 0
40 223 3 c205 3 311 2 756 -8z m-239 -100 c146 0 301 4 346 8 l80 8 3 -50 c2
-50 1 -51 -26 -51 -15 1 -41 6 -57 13 -21 9 -54 10 -120 4 -79 -7 -428 -1
-475 8 -30 6 -335 10 -411 6 l-75 -4 -3 31 -3 31 123 3 c68 2 175 1 238 -1 63
-3 234 -5 380 -6z m-30 -80 c233 -4 372 -10 404 -18 l50 -13 2 -86 c1 -47 -1
-91 -6 -97 -5 -9 -152 -13 -584 -14 l-577 -2 3 115 3 115 55 5 c58 5 94 5 650
-5z m457 -292 l-4 -48 -581 -3 -582 -2 0 43 c0 24 3 46 6 50 4 3 267 6 586 7
l579 0 -4 -47z"/>
<path d="M2460 2076 c0 -117 8 -148 44 -171 30 -20 103 -23 144 -6 44 18 57
59 57 176 l0 100 -32 3 -33 3 0 -108 c0 -72 -4 -113 -12 -121 -7 -7 -29 -12
-50 -12 -51 0 -58 17 -58 139 l0 101 -30 0 -30 0 0 -104z"/>
<path d="M3000 2161 c0 -20 25 -35 41 -25 5 3 9 14 9 25 0 14 -7 19 -25 19
-18 0 -25 -5 -25 -19z"/>
<path d="M3925 2170 c-10 -17 14 -38 35 -33 30 8 26 43 -4 43 -14 0 -28 -5
-31 -10z"/>
<path d="M4177 2174 c-3 -4 -4 -23 -1 -44 5 -36 -8 -61 -21 -40 -7 11 -64 14
-90 4 -48 -19 -60 -125 -19 -173 28 -33 75 -42 115 -21 13 7 19 7 19 0 0 -5
11 -10 25 -10 l25 0 0 145 0 145 -23 0 c-13 0 -26 -3 -30 -6z m-11 -139 c27
-41 2 -105 -41 -105 -30 0 -49 25 -49 65 0 64 58 89 90 40z"/>
<path d="M4655 2168 c-3 -7 -3 -28 -1 -45 4 -35 0 -38 -36 -25 -66 25 -124
-34 -115 -115 8 -77 74 -117 138 -83 13 7 19 7 19 0 0 -5 11 -10 25 -10 l25 0
0 145 0 145 -25 0 c-14 0 -28 -6 -30 -12z m-4 -135 c13 -35 3 -89 -17 -97 -48
-18 -74 5 -74 66 0 41 15 58 52 58 22 0 31 -6 39 -27z"/>
<path d="M2843 2095 c-18 -8 -33 -10 -33 -5 0 6 -11 10 -25 10 -31 0 -37 -22
-31 -115 3 -38 5 -76 5 -82 1 -7 12 -13 26 -13 24 0 25 2 25 68 0 78 14 106
51 100 23 -3 24 -7 29 -83 5 -78 6 -80 33 -83 l27 -3 0 84 c0 66 -4 89 -17
105 -25 28 -52 33 -90 17z"/>
<path d="M3385 2103 c-63 -16 -97 -81 -76 -146 15 -45 49 -67 104 -67 42 0 87
26 87 50 0 13 -47 13 -55 0 -9 -14 -58 -13 -73 2 -29 29 -13 38 63 38 67 0 75
2 75 19 0 65 -64 119 -125 104z m55 -47 c0 -2 3 -11 6 -20 5 -13 -2 -16 -40
-16 -47 0 -55 7 -34 28 11 11 68 18 68 8z"/>
<path d="M3650 2103 c-8 -3 -23 -12 -32 -21 -16 -14 -18 -13 -18 1 0 11 -8 17
-25 17 l-25 0 0 -105 c0 -104 0 -105 24 -105 22 0 24 4 28 71 4 74 13 89 56
89 18 0 22 6 22 30 0 30 -3 33 -30 23z"/>
<path d="M3765 2102 c-37 -5 -65 -28 -65 -56 0 -34 13 -45 71 -64 62 -20 78
-47 33 -58 -21 -5 -31 -2 -45 14 -9 12 -28 22 -42 22 -20 0 -24 -4 -20 -20 8
-32 43 -50 96 -50 38 0 53 5 72 25 44 43 26 78 -51 101 -41 12 -54 20 -52 32
4 22 41 27 58 7 13 -15 60 -21 60 -7 0 33 -59 61 -115 54z"/>
<path d="M4331 2097 c-19 -7 -41 -22 -49 -34 -14 -22 -13 -23 16 -23 16 0 35
7 42 15 16 19 44 19 60 0 18 -22 4 -33 -53 -44 -26 -4 -54 -14 -62 -21 -20
-16 -19 -64 1 -84 18 -18 76 -21 105 -6 13 7 19 7 19 0 0 -5 14 -10 31 -10 24
0 30 3 25 16 -3 9 -6 51 -6 93 0 71 -2 79 -22 89 -39 18 -72 21 -107 9z m79
-120 c0 -22 -30 -57 -49 -57 -23 0 -45 25 -36 40 16 25 85 39 85 17z"/>
<path d="M3000 1995 l0 -105 25 0 25 0 0 105 0 105 -25 0 -25 0 0 -105z"/>
<path d="M3117 1995 c34 -104 35 -105 67 -105 31 0 32 1 64 98 18 53 32 100
32 105 0 4 -11 7 -25 7 -22 0 -27 -8 -46 -72 l-22 -73 -25 73 c-22 67 -26 72
-52 72 l-29 0 36 -105z"/>
<path d="M3929 2010 c-1 -49 -2 -96 -3 -102 -1 -7 11 -14 27 -16 l27 -3 0 105
0 106 -25 0 c-25 0 -25 -1 -26 -90z"/>
<path d="M2478 1743 c-16 -4 -18 -20 -18 -144 l0 -139 30 0 29 0 3 92 3 93 56
-90 c49 -80 59 -90 87 -93 l32 -3 0 141 0 141 -27 -3 -28 -3 2 -77 c2 -42 -1
-80 -6 -83 -5 -3 -31 29 -57 71 -48 77 -70 105 -82 103 -4 -1 -15 -3 -24 -6z"/>
<path d="M3232 1742 c-20 -13 -3 -42 24 -42 19 0 24 5 24 25 0 26 -22 33 -48
17z"/>
<path d="M4056 1743 c-3 -3 -6 -69 -6 -145 l0 -138 30 0 31 0 -3 142 c-3 135
-4 141 -24 144 -12 2 -24 1 -28 -3z"/>
<path d="M4433 1742 c-7 -5 -14 -27 -15 -51 -1 -34 -4 -41 -17 -35 -47 21 -80
16 -112 -15 -29 -30 -31 -36 -27 -88 4 -46 10 -61 33 -81 23 -19 35 -23 64
-17 20 3 53 6 74 5 l38 -1 -3 142 c-3 139 -8 158 -35 141z m-25 -145 c26 -54
-10 -117 -58 -102 -35 11 -46 86 -17 123 17 22 60 10 75 -21z"/>
<path d="M4879 1740 c-12 -7 -15 -35 -14 -142 l0 -133 28 -3 27 -3 0 139 c0
144 -5 162 -41 142z"/>
<path d="M2783 1655 c-11 -8 -23 -24 -26 -35 -4 -16 0 -20 19 -20 13 0 33 9
44 20 20 20 47 18 62 -4 10 -16 -11 -36 -39 -36 -13 0 -39 -7 -58 -14 -31 -13
-35 -19 -35 -50 0 -46 34 -71 82 -62 18 4 51 7 73 6 l40 -1 -3 91 c-3 79 -6
92 -25 105 -27 19 -106 19 -134 0z m97 -144 c-13 -26 -68 -29 -77 -5 -8 21 8
35 49 43 37 8 46 -5 28 -38z"/>
<path d="M3018 1641 c-28 -25 -32 -35 -32 -79 0 -40 5 -57 24 -77 46 -49 136
-41 165 16 23 44 -12 52 -53 11 -12 -12 -28 -22 -35 -22 -41 0 -64 92 -31 124
21 22 51 20 66 -4 17 -26 58 -27 58 -1 0 30 -47 61 -91 61 -28 0 -47 -8 -71
-29z"/>
<path d="M3233 1653 c-4 -10 -7 -56 -8 -103 l0 -85 28 -3 27 -3 0 105 c0 100
-1 106 -20 106 -11 0 -24 -8 -27 -17z"/>
<path d="M3368 1653 c-109 -68 -17 -242 102 -193 38 16 50 31 60 77 22 97 -77
168 -162 116z m96 -45 c22 -31 20 -74 -4 -98 -39 -39 -80 -13 -80 50 0 64 52
94 84 48z"/>
<path d="M3583 1658 c-8 -14 -12 -164 -5 -185 2 -7 15 -13 28 -13 23 0 24 3
24 69 0 69 14 101 43 101 28 -1 36 -19 39 -90 3 -74 4 -75 31 -78 l27 -3 0 85
c0 73 -3 89 -20 106 -24 24 -82 27 -101 4 -11 -14 -13 -14 -21 0 -11 19 -34
21 -45 4z"/>
<path d="M3851 1657 c-13 -6 -28 -22 -32 -34 -7 -21 -5 -23 20 -23 16 0 31 6
34 14 8 19 43 26 63 11 26 -18 11 -45 -25 -45 -36 0 -83 -17 -93 -33 -4 -7 -8
-24 -8 -39 0 -38 39 -63 82 -54 18 4 51 7 73 6 l40 0 -3 87 c-3 74 -7 91 -24
106 -24 20 -92 23 -127 4z m99 -118 c0 -27 -22 -49 -51 -49 -37 0 -51 27 -24
46 22 17 75 19 75 3z"/>
<path d="M4539 1641 c-24 -25 -29 -38 -29 -78 0 -27 7 -58 15 -69 36 -52 127
-55 166 -6 l21 27 -21 3 c-11 2 -31 -4 -43 -12 -12 -9 -30 -16 -40 -16 -16 0
-48 35 -48 52 0 5 34 8 75 8 l75 0 0 31 c0 47 -47 89 -100 89 -33 0 -48 -6
-71 -29z m99 -23 c23 -23 13 -38 -26 -38 -48 0 -57 8 -35 32 19 21 44 23 61 6z"/>
<path d="M4994 1636 c-44 -44 -47 -99 -8 -145 59 -71 178 -39 184 49 4 54 -1
73 -29 101 -43 43 -101 41 -147 -5z m110 -28 c9 -12 16 -35 16 -50 0 -28 -30
-68 -52 -68 -25 0 -48 34 -48 71 0 63 52 92 84 47z"/>
<path d="M5230 1650 c-24 -24 -26 -62 -5 -80 8 -6 36 -17 62 -24 37 -9 48 -17
48 -32 0 -24 -46 -31 -65 -10 -15 20 -60 21 -60 3 0 -21 32 -46 67 -53 112
-22 170 98 61 126 -65 17 -68 18 -68 35 0 20 53 20 70 0 15 -18 36 -19 46 -3
4 6 -4 21 -20 35 -36 30 -107 32 -136 3z"/>
<path d="M2530 1303 c-51 -27 -80 -76 -80 -137 0 -89 54 -146 139 -146 59 0
91 19 112 65 l18 40 -26 3 c-18 3 -31 -3 -40 -15 -25 -37 -34 -43 -64 -43 -46
0 -79 39 -79 94 0 88 81 132 136 73 27 -30 32 -31 53 -18 12 8 13 15 3 35 -25
56 -111 81 -172 49z"/>
<path d="M3840 1166 l0 -146 25 0 c24 0 25 3 26 58 1 85 10 106 43 110 39 5
46 -10 46 -95 0 -71 1 -73 25 -73 25 0 25 1 25 88 0 75 -3 92 -19 106 -23 21
-74 24 -96 6 -16 -14 -17 -13 -19 45 -1 36 -4 40 -28 43 l-28 3 0 -145z"/>
<path d="M4080 1290 c0 -16 7 -20 30 -20 23 0 30 4 30 20 0 16 -7 20 -30 20
-23 0 -30 -4 -30 -20z"/>
<path d="M2823 1232 c-12 -2 -34 -17 -49 -35 -23 -27 -26 -38 -21 -81 6 -66
39 -96 103 -96 37 0 51 6 75 29 24 25 29 38 29 79 0 33 -6 57 -18 72 -18 22
-78 38 -119 32z m77 -61 c35 -66 -36 -149 -81 -95 -16 19 -15 79 1 99 18 22
67 19 80 -4z"/>
<path d="M3105 1232 c-11 -2 -26 -9 -32 -14 -9 -7 -13 -7 -13 1 0 15 -47 14
-52 -1 -3 -7 -4 -53 -2 -103 2 -89 2 -90 28 -93 26 -3 26 -3 26 70 0 79 9 98
46 98 28 0 34 -17 34 -101 0 -67 1 -69 25 -69 24 0 25 2 25 66 0 77 12 104 44
104 30 0 36 -16 36 -101 0 -66 1 -69 24 -69 15 0 26 7 29 18 10 39 6 125 -7
157 -14 32 -18 35 -58 35 -24 0 -49 -5 -56 -12 -8 -8 -15 -8 -24 -1 -17 14
-49 20 -73 15z"/>
<path d="M3430 1227 c-72 -25 -91 -129 -33 -183 34 -32 99 -33 137 -3 15 12
25 26 23 32 -5 16 -35 17 -48 1 -14 -17 -61 -18 -77 -2 -7 7 -12 20 -12 29 0
15 10 17 73 16 l72 -2 -2 34 c-3 63 -66 100 -133 78z m70 -41 c0 -2 3 -11 6
-20 5 -13 -2 -16 -40 -16 -47 0 -55 7 -34 28 11 11 68 18 68 8z"/>
<path d="M4295 1232 c-16 -2 -36 -8 -42 -14 -9 -7 -13 -7 -13 1 0 7 -11 11
-26 9 l-26 -3 0 -100 0 -100 26 -3 c26 -3 26 -3 26 63 0 78 12 105 45 105 34
0 39 -14 37 -97 l-2 -73 30 0 30 0 0 81 c0 110 -19 139 -85 131z"/>
<path d="M4471 1224 c-49 -21 -67 -95 -36 -153 21 -41 72 -54 116 -31 16 9 19
7 19 -13 0 -12 -5 -28 -12 -35 -17 -17 -53 -15 -68 3 -16 20 -60 20 -60 0 0
-16 31 -39 67 -49 32 -10 101 11 113 34 6 11 12 71 14 135 l3 115 -29 0 c-15
0 -28 -5 -28 -11 0 -8 -4 -8 -12 -2 -23 18 -55 21 -87 7z m97 -86 c4 -41 -19
-71 -52 -66 -45 7 -55 101 -12 118 32 12 60 -11 64 -52z"/>
<path d="M5005 1224 c-14 -7 -27 -9 -30 -3 -4 5 -17 9 -31 9 -24 0 -24 0 -24
-105 l0 -105 30 0 30 0 0 73 c0 85 7 100 46 95 l29 -3 3 -82 3 -83 29 0 30 0
0 78 c0 42 -6 88 -13 102 -15 30 -66 43 -102 24z"/>
<path d="M5439 1230 c-32 -8 -58 -54 -43 -77 13 -22 30 -30 82 -43 47 -12 59
-43 20 -53 -23 -6 -58 8 -58 23 0 6 -11 10 -25 10 -31 0 -33 -22 -3 -50 30
-28 106 -28 142 1 51 40 26 90 -52 108 -51 11 -56 15 -49 36 8 19 41 19 61 0
18 -19 56 -20 56 -2 0 35 -72 61 -131 47z"/>
<path d="M3626 1199 c-38 -45 -37 -110 3 -150 40 -39 109 -41 146 -4 14 13 25
31 25 40 0 22 -43 19 -58 -5 -14 -23 -54 -26 -72 -5 -6 8 -12 30 -12 50 0 20
6 42 12 50 16 19 54 19 70 0 15 -19 60 -20 60 -2 0 31 -45 57 -97 57 -45 0
-54 -4 -77 -31z"/>
<path d="M4080 1125 l0 -105 30 0 30 0 0 105 0 105 -30 0 -30 0 0 -105z"/>
<path d="M4696 1199 c-38 -45 -37 -110 3 -150 24 -24 38 -29 76 -29 38 0 52 5
76 29 40 40 41 105 3 150 -23 27 -32 31 -79 31 -47 0 -56 -4 -79 -31z m130
-56 c14 -73 -63 -115 -94 -50 -16 34 -1 94 26 99 32 8 61 -14 68 -49z"/>
<path d="M5185 1206 c-33 -33 -41 -85 -20 -129 18 -39 50 -57 99 -57 36 0 86
32 86 55 0 15 -37 12 -54 -5 -15 -15 -62 -12 -76 5 -24 29 -5 43 52 39 78 -5
91 1 84 39 -11 52 -42 77 -98 77 -38 0 -54 -5 -73 -24z m107 -30 c15 -21 8
-26 -37 -26 -49 0 -57 11 -24 34 22 15 48 11 61 -8z"/>
</g>
</svg>
